# xmcd
#
# Track frame offsets:
# 150
# 18269
# 43596
# 68074
# 86523
# 97650
# 115802
# 124580
# 147379
# 158434
# 182810
# 208233
#
# Disc length: 2993 seconds
#
#
# Revision: 0
# Processed by: cddbd v1.5.1PL0 Copyright (c) Steve Scherf et al.
# Submitted via: FreeRIP 2.51 
#
DISCID=960baf0c
DTITLE=Sime Nugent and the Forefathers - The Undertow
DYEAR=1900
DGENRE=Rock
TTITLE0=Happy Man
TTITLE1=Football Boots
TTITLE2=The Funeral
TTITLE3=Simple Things
TTITLE4=Here She Comes
TTITLE5=The River Tells
TTITLE6=Rest
TTITLE7=The Undertow
TTITLE8=Not Your Man
TTITLE9=The Bus
TTITLE10=Betrothed
TTITLE11=The Ice
EXTD=
EXTT0=
EXTT1=
EXTT2=
EXTT3=
EXTT4=
EXTT5=
EXTT6=
EXTT7=
EXTT8=
EXTT9=
EXTT10=
EXTT11=
PLAYORDER=
